<?xml version="1.0" standalone="no"?>
<!DOCTYPE svg PUBLIC "-//W3C//DTD SVG 20010904//EN"
 "http://www.w3.org/TR/2001/REC-SVG-20010904/DTD/svg10.dtd">
<svg version="1.0" xmlns="http://www.w3.org/2000/svg"
 width="512.000000pt" height="512.000000pt" viewBox="0 0 512.000000 512.000000"
 preserveAspectRatio="xMidYMid meet">
<metadata>
Created by potrace 1.14, written by Peter Selinger 2001-2017
</metadata>
<g transform="translate(0.000000,512.000000) scale(0.100000,-0.100000)"
fill="#000000" stroke="none">
<path d="M930 4339 c-14 -5 -36 -26 -50 -46 -20 -30 -25 -49 -25 -102 0 -77
26 -128 83 -164 l35 -23 0 -108 0 -109 -56 -17 c-91 -28 -168 -94 -212 -180
-33 -66 -38 -99 -40 -265 l-1 -150 -65 -1 c-113 -1 -139 -33 -139 -171 0 -79
12 -102 91 -179 l64 -61 0 -374 c0 -206 -3 -378 -7 -384 -4 -6 -58 -10 -135
-9 -197 2 -220 -18 -218 -186 2 -108 13 -135 72 -180 26 -19 51 -40 57 -45 6
-6 31 -26 56 -45 25 -19 51 -40 58 -47 9 -9 12 -122 12 -497 l0 -486 2075 0
2075 0 0 189 c0 104 -4 201 -10 215 -13 35 -54 59 -101 59 l-39 0 -1 86 c-1
150 -3 162 -38 193 -28 25 -39 28 -99 28 l-69 0 2 88 c1 80 -4 157 -20 302
-10 90 -54 276 -90 379 -86 248 -208 444 -385 621 -83 84 -139 127 -330 252
-97 64 -213 146 -258 183 -88 74 -94 85 -172 294 -51 139 -56 190 -28 306 31
128 28 144 -68 408 -15 42 -31 77 -35 77 -17 0 -118 -292 -124 -355 -2 -23 6
-79 17 -125 11 -47 20 -103 19 -126 -1 -78 -115 -393 -155 -427 -11 -11 -35
-31 -51 -45 -30 -27 -93 -74 -157 -120 -18 -13 -89 -60 -158 -104 -222 -142
-364 -279 -490 -473 -59 -92 -137 -249 -170 -347 l-23 -67 -73 -3 c-39 -2 -82
-1 -95 2 l-24 5 0 377 0 378 67 67 c78 79 88 101 88 193 0 133 -23 152 -186
159 -19 1 -20 6 -19 124 2 215 -21 294 -111 384 -48 47 -133 93 -175 93 l-26
0 2 105 c1 57 3 106 6 107 2 2 25 13 52 26 59 27 77 60 53 97 -20 31 -33 31
-91 1 -39 -21 -50 -23 -76 -14 -60 21 -83 101 -44 148 23 28 24 58 1 78 -16
15 -27 17 -46 11z"/>
</g>
</svg>
